<?xml version="1.0" encoding="UTF-8" standalone="no"?>
<!-- Created with Inkscape (http://www.inkscape.org/) -->

<svg
   width="210mm"
   height="297mm"
   viewBox="0 0 210 297"
   version="1.1"
   id="svg1"
   xml:space="preserve"
   inkscape:version="1.4.2 (ebf0e940, 2025-05-08)"
   sodipodi:docname="c9logo2.svg"
   xmlns:inkscape="http://www.inkscape.org/namespaces/inkscape"
   xmlns:sodipodi="http://sodipodi.sourceforge.net/DTD/sodipodi-0.dtd"
   xmlns="http://www.w3.org/2000/svg"
   xmlns:svg="http://www.w3.org/2000/svg"><sodipodi:namedview
     id="namedview1"
     pagecolor="#505050"
     bordercolor="#eeeeee"
     borderopacity="1"
     inkscape:showpageshadow="0"
     inkscape:pageopacity="0"
     inkscape:pagecheckerboard="0"
     inkscape:deskcolor="#505050"
     inkscape:document-units="mm"
     inkscape:zoom="0.64943182"
     inkscape:cx="398.04024"
     inkscape:cy="619.00262"
     inkscape:window-width="1696"
     inkscape:window-height="957"
     inkscape:window-x="234"
     inkscape:window-y="31"
     inkscape:window-maximized="0"
     inkscape:current-layer="layer1" /><defs
     id="defs1" /><g
     inkscape:label="Layer 1"
     inkscape:groupmode="layer"
     id="layer1"><path
       id="path115"
       style="fill:#0ea2eb;stroke:none;stroke-width:1.16854"
       d="m 111.30211,112.84734 c -9.78553,0.24479 -18.810094,5.64073 -24.00474,13.89062 -1.556135,2.47139 -2.179403,7.70686 -4.112411,9.54981 -1.117875,1.0658 -4.595097,0.65837 -6.109704,0.92087 -3.861358,0.66921 -7.604969,2.10398 -10.879956,4.27158 -15.51869,10.27123 -17.383763,32.44577 -4.533574,45.64889 h 0.22686 l 3.399792,-3.4184 c -2.744984,-5.06638 -6.051286,-8.58131 -6.8833,-14.58515 -2.609176,-18.82798 13.94224,-26.98012 29.550134,-26.66349 0.96756,-7.19496 2.981919,-13.93037 8.841837,-18.71255 13.386022,-10.92408 33.899812,-4.39524 38.305152,12.55995 5.7342,-3.97826 2.94298,-8.21234 -0.69194,-12.76201 -5.44388,-6.81384 -14.40706,-10.91779 -23.10815,-10.70012 z m 45.47836,4.29534 c -4.59864,0.0664 -10.60255,1.84036 -11.55175,3.69745 -2.27698,4.45479 4.93048,3.01483 6.64714,2.93522 -8.23589,8.32955 -16.19652,16.99146 -24.2254,25.52351 -2.88774,3.06872 -6.64867,9.13398 -10.49703,10.84585 -1.38254,0.615 -3.12323,-1.54569 -4.038,-2.33836 -2.32591,-2.01546 -6.93826,-7.87669 -10.1999,-7.8357 -2.27835,0.0286 -4.880123,3.71491 -6.287463,5.25343 -4.938593,5.39896 -10.140578,10.55341 -15.078667,15.95251 -6.365648,6.95993 -13.128476,13.55216 -19.493383,20.51038 -1.61127,1.76147 -6.271716,4.89577 -5.329391,7.72666 1.947502,5.8506 10.607009,-5.50712 12.188403,-7.27087 h 0.22686 c 5.697935,4.9428 16.880075,3.1905 23.800098,3.1905 h 39.213623 c 11.11862,0 21.62016,0.25866 30.1408,-8.215 16.321,-16.23104 7.74446,-46.20896 -15.40733,-49.89722 2.36117,-3.62398 6.13881,-7.57536 9.51983,-10.25518 -8.8e-4,1.55911 -0.28564,3.01765 -0.39377,4.55786 -0.19415,2.76548 3.1367,4.96959 4.78679,2.02313 1.49684,-2.67279 2.02626,-11.33983 1.34307,-14.32832 -0.35215,-1.54043 -2.60535,-2.11567 -5.36453,-2.07585 z" /></g></svg>
